<mxfile host="app.diagrams.net" modified="2024-05-20T01:40:01.033Z" agent="Mozilla/5.0 (Windows NT 10.0; Win64; x64) AppleWebKit/537.36 (KHTML, like Gecko) Chrome/124.0.0.0 Safari/537.36" etag="ArKm6rWLiA_d2hqqiDT4" version="24.4.4" type="device" pages="3">
  <diagram name="Fluxo geral de importação de dados" id="r191UsT41l2WCqw8DEog">
    <mxGraphModel dx="1235" dy="1783" grid="1" gridSize="10" guides="1" tooltips="1" connect="1" arrows="1" fold="1" page="1" pageScale="1" pageWidth="827" pageHeight="1169" math="0" shadow="0">
      <root>
        <mxCell id="0" />
        <mxCell id="1" parent="0" />
        <mxCell id="Gb0Qs_LwxQo7n8I7Lbfp-1" value="Diagrama geral de importação de dados" style="shape=umlFrame;whiteSpace=wrap;html=1;pointerEvents=0;width=280;height=30;" vertex="1" parent="1">
          <mxGeometry x="20" y="-20" width="2200" height="550" as="geometry" />
        </mxCell>
        <mxCell id="Gb0Qs_LwxQo7n8I7Lbfp-5" style="edgeStyle=orthogonalEdgeStyle;rounded=0;orthogonalLoop=1;jettySize=auto;html=1;exitX=1;exitY=0.5;exitDx=0;exitDy=0;entryX=0;entryY=0.5;entryDx=0;entryDy=0;" edge="1" parent="1" source="Gb0Qs_LwxQo7n8I7Lbfp-2" target="Gb0Qs_LwxQo7n8I7Lbfp-3">
          <mxGeometry relative="1" as="geometry" />
        </mxCell>
        <mxCell id="Gb0Qs_LwxQo7n8I7Lbfp-2" value="" style="ellipse;whiteSpace=wrap;html=1;aspect=fixed;fillColor=#dae8fc;strokeColor=#6c8ebf;" vertex="1" parent="1">
          <mxGeometry x="40" y="180" width="40" height="40" as="geometry" />
        </mxCell>
        <mxCell id="Gb0Qs_LwxQo7n8I7Lbfp-6" style="edgeStyle=orthogonalEdgeStyle;rounded=0;orthogonalLoop=1;jettySize=auto;html=1;exitX=1;exitY=0.5;exitDx=0;exitDy=0;entryX=0;entryY=0.5;entryDx=0;entryDy=0;" edge="1" parent="1" source="Gb0Qs_LwxQo7n8I7Lbfp-3" target="Gb0Qs_LwxQo7n8I7Lbfp-4">
          <mxGeometry relative="1" as="geometry" />
        </mxCell>
        <mxCell id="Gb0Qs_LwxQo7n8I7Lbfp-3" value="Criação do banco de dados SQLite, assim como todas as tabelas do projeto" style="rounded=1;whiteSpace=wrap;html=1;fillColor=#dae8fc;strokeColor=#6c8ebf;" vertex="1" parent="1">
          <mxGeometry x="110" y="170" width="190" height="60" as="geometry" />
        </mxCell>
        <mxCell id="Gb0Qs_LwxQo7n8I7Lbfp-8" style="edgeStyle=orthogonalEdgeStyle;rounded=0;orthogonalLoop=1;jettySize=auto;html=1;exitX=1;exitY=0.5;exitDx=0;exitDy=0;entryX=0;entryY=0.5;entryDx=0;entryDy=0;" edge="1" parent="1" source="Gb0Qs_LwxQo7n8I7Lbfp-4" target="Gb0Qs_LwxQo7n8I7Lbfp-7">
          <mxGeometry relative="1" as="geometry" />
        </mxCell>
        <mxCell id="Gb0Qs_LwxQo7n8I7Lbfp-4" value="Criação de pastas temporárias utilizadas na importação de dados" style="rounded=1;whiteSpace=wrap;html=1;fillColor=#dae8fc;strokeColor=#6c8ebf;" vertex="1" parent="1">
          <mxGeometry x="330" y="170" width="160" height="60" as="geometry" />
        </mxCell>
        <mxCell id="Gb0Qs_LwxQo7n8I7Lbfp-11" style="edgeStyle=orthogonalEdgeStyle;rounded=0;orthogonalLoop=1;jettySize=auto;html=1;exitX=1;exitY=0.5;exitDx=0;exitDy=0;entryX=0;entryY=0.5;entryDx=0;entryDy=0;" edge="1" parent="1" source="Gb0Qs_LwxQo7n8I7Lbfp-7" target="Gb0Qs_LwxQo7n8I7Lbfp-10">
          <mxGeometry relative="1" as="geometry" />
        </mxCell>
        <mxCell id="Gb0Qs_LwxQo7n8I7Lbfp-7" value="Criação de usuário padrão da applicação" style="rounded=1;whiteSpace=wrap;html=1;fillColor=#dae8fc;strokeColor=#6c8ebf;" vertex="1" parent="1">
          <mxGeometry x="520" y="170" width="120" height="60" as="geometry" />
        </mxCell>
        <mxCell id="Gb0Qs_LwxQo7n8I7Lbfp-9" value="Para cada arquivo de dados a ser importado" style="shape=umlFrame;whiteSpace=wrap;html=1;pointerEvents=0;width=200;height=30;" vertex="1" parent="1">
          <mxGeometry x="670" width="1110" height="510" as="geometry" />
        </mxCell>
        <mxCell id="Gb0Qs_LwxQo7n8I7Lbfp-13" style="edgeStyle=orthogonalEdgeStyle;rounded=0;orthogonalLoop=1;jettySize=auto;html=1;exitX=1;exitY=0.5;exitDx=0;exitDy=0;entryX=0;entryY=0.5;entryDx=0;entryDy=0;" edge="1" parent="1" source="Gb0Qs_LwxQo7n8I7Lbfp-10" target="Gb0Qs_LwxQo7n8I7Lbfp-12">
          <mxGeometry relative="1" as="geometry" />
        </mxCell>
        <mxCell id="Gb0Qs_LwxQo7n8I7Lbfp-10" value="Download do arquivo csv com od dados para importação" style="rounded=1;whiteSpace=wrap;html=1;fillColor=#dae8fc;strokeColor=#6c8ebf;" vertex="1" parent="1">
          <mxGeometry x="700" y="170" width="143" height="60" as="geometry" />
        </mxCell>
        <mxCell id="Gb0Qs_LwxQo7n8I7Lbfp-16" style="edgeStyle=orthogonalEdgeStyle;rounded=0;orthogonalLoop=1;jettySize=auto;html=1;exitX=1;exitY=0.5;exitDx=0;exitDy=0;entryX=0;entryY=0.5;entryDx=0;entryDy=0;" edge="1" parent="1" source="Gb0Qs_LwxQo7n8I7Lbfp-12" target="Gb0Qs_LwxQo7n8I7Lbfp-15">
          <mxGeometry relative="1" as="geometry" />
        </mxCell>
        <mxCell id="Gb0Qs_LwxQo7n8I7Lbfp-12" value="Carregar os dados em memória utilizando a biblioteca Pandas" style="rounded=1;whiteSpace=wrap;html=1;fillColor=#dae8fc;strokeColor=#6c8ebf;" vertex="1" parent="1">
          <mxGeometry x="870" y="170" width="150" height="60" as="geometry" />
        </mxCell>
        <mxCell id="Gb0Qs_LwxQo7n8I7Lbfp-14" value="Para cada conjunto de dados no arquivo csv" style="shape=umlFrame;whiteSpace=wrap;html=1;pointerEvents=0;width=210;height=30;" vertex="1" parent="1">
          <mxGeometry x="1040" y="20" width="720" height="470" as="geometry" />
        </mxCell>
        <mxCell id="Gb0Qs_LwxQo7n8I7Lbfp-23" style="edgeStyle=orthogonalEdgeStyle;rounded=0;orthogonalLoop=1;jettySize=auto;html=1;exitX=1;exitY=0.5;exitDx=0;exitDy=0;entryX=0;entryY=0.5;entryDx=0;entryDy=0;" edge="1" parent="1" source="Gb0Qs_LwxQo7n8I7Lbfp-15" target="Gb0Qs_LwxQo7n8I7Lbfp-22">
          <mxGeometry relative="1" as="geometry" />
        </mxCell>
        <mxCell id="Gb0Qs_LwxQo7n8I7Lbfp-24" value="Não" style="edgeLabel;html=1;align=center;verticalAlign=middle;resizable=0;points=[];" vertex="1" connectable="0" parent="Gb0Qs_LwxQo7n8I7Lbfp-23">
          <mxGeometry x="-0.2807" y="1" relative="1" as="geometry">
            <mxPoint x="1" as="offset" />
          </mxGeometry>
        </mxCell>
        <mxCell id="Gb0Qs_LwxQo7n8I7Lbfp-25" style="edgeStyle=orthogonalEdgeStyle;rounded=0;orthogonalLoop=1;jettySize=auto;html=1;exitX=0.5;exitY=1;exitDx=0;exitDy=0;entryX=0.5;entryY=0;entryDx=0;entryDy=0;" edge="1" parent="1" source="Gb0Qs_LwxQo7n8I7Lbfp-15" target="Gb0Qs_LwxQo7n8I7Lbfp-18">
          <mxGeometry relative="1" as="geometry" />
        </mxCell>
        <mxCell id="Gb0Qs_LwxQo7n8I7Lbfp-26" value="Sim" style="edgeLabel;html=1;align=center;verticalAlign=middle;resizable=0;points=[];" vertex="1" connectable="0" parent="Gb0Qs_LwxQo7n8I7Lbfp-25">
          <mxGeometry x="-0.4187" relative="1" as="geometry">
            <mxPoint y="10" as="offset" />
          </mxGeometry>
        </mxCell>
        <mxCell id="Gb0Qs_LwxQo7n8I7Lbfp-15" value="" style="rhombus;whiteSpace=wrap;html=1;fillColor=#fff2cc;strokeColor=#d6b656;" vertex="1" parent="1">
          <mxGeometry x="1105" y="175" width="50" height="50" as="geometry" />
        </mxCell>
        <mxCell id="Gb0Qs_LwxQo7n8I7Lbfp-17" value="Requer reestruturação nos dados?" style="text;html=1;align=center;verticalAlign=middle;whiteSpace=wrap;rounded=0;" vertex="1" parent="1">
          <mxGeometry x="1065" y="140" width="130" height="30" as="geometry" />
        </mxCell>
        <mxCell id="Gb0Qs_LwxQo7n8I7Lbfp-27" style="edgeStyle=orthogonalEdgeStyle;rounded=0;orthogonalLoop=1;jettySize=auto;html=1;exitX=1;exitY=0.5;exitDx=0;exitDy=0;entryX=0;entryY=0.5;entryDx=0;entryDy=0;" edge="1" parent="1" source="Gb0Qs_LwxQo7n8I7Lbfp-18" target="Gb0Qs_LwxQo7n8I7Lbfp-22">
          <mxGeometry relative="1" as="geometry">
            <Array as="points">
              <mxPoint x="1300" y="340" />
              <mxPoint x="1300" y="200" />
            </Array>
          </mxGeometry>
        </mxCell>
        <mxCell id="Gb0Qs_LwxQo7n8I7Lbfp-18" value="Reestruturar dados conforme necessário" style="rounded=1;whiteSpace=wrap;html=1;fillColor=#dae8fc;strokeColor=#6c8ebf;" vertex="1" parent="1">
          <mxGeometry x="1070" y="310" width="120" height="60" as="geometry" />
        </mxCell>
        <mxCell id="Gb0Qs_LwxQo7n8I7Lbfp-19" value="Para cada linha no dataframe" style="shape=umlFrame;whiteSpace=wrap;html=1;pointerEvents=0;width=210;height=30;" vertex="1" parent="1">
          <mxGeometry x="1260" y="50" width="310" height="420" as="geometry" />
        </mxCell>
        <mxCell id="Gb0Qs_LwxQo7n8I7Lbfp-32" style="edgeStyle=orthogonalEdgeStyle;rounded=0;orthogonalLoop=1;jettySize=auto;html=1;exitX=1;exitY=0.5;exitDx=0;exitDy=0;entryX=0;entryY=0.5;entryDx=0;entryDy=0;" edge="1" parent="1" source="Gb0Qs_LwxQo7n8I7Lbfp-22" target="Gb0Qs_LwxQo7n8I7Lbfp-31">
          <mxGeometry relative="1" as="geometry" />
        </mxCell>
        <mxCell id="Gb0Qs_LwxQo7n8I7Lbfp-35" value="Não" style="edgeLabel;html=1;align=center;verticalAlign=middle;resizable=0;points=[];" vertex="1" connectable="0" parent="Gb0Qs_LwxQo7n8I7Lbfp-32">
          <mxGeometry x="-0.2824" y="-3" relative="1" as="geometry">
            <mxPoint as="offset" />
          </mxGeometry>
        </mxCell>
        <mxCell id="Gb0Qs_LwxQo7n8I7Lbfp-22" value="" style="rhombus;whiteSpace=wrap;html=1;fillColor=#fff2cc;strokeColor=#d6b656;" vertex="1" parent="1">
          <mxGeometry x="1330" y="175" width="50" height="50" as="geometry" />
        </mxCell>
        <mxCell id="Gb0Qs_LwxQo7n8I7Lbfp-28" value="Os dados já foram salvos no banco de dados?" style="text;html=1;align=center;verticalAlign=middle;whiteSpace=wrap;rounded=0;" vertex="1" parent="1">
          <mxGeometry x="1265" y="130" width="180" height="30" as="geometry" />
        </mxCell>
        <mxCell id="Gb0Qs_LwxQo7n8I7Lbfp-29" style="edgeStyle=orthogonalEdgeStyle;rounded=0;orthogonalLoop=1;jettySize=auto;html=1;exitX=0.5;exitY=1;exitDx=0;exitDy=0;entryX=0;entryY=0.53;entryDx=0;entryDy=0;entryPerimeter=0;jumpStyle=arc;" edge="1" parent="1" source="Gb0Qs_LwxQo7n8I7Lbfp-22" target="Gb0Qs_LwxQo7n8I7Lbfp-19">
          <mxGeometry relative="1" as="geometry">
            <Array as="points">
              <mxPoint x="1355" y="310" />
              <mxPoint x="1240" y="310" />
              <mxPoint x="1240" y="273" />
            </Array>
          </mxGeometry>
        </mxCell>
        <mxCell id="Gb0Qs_LwxQo7n8I7Lbfp-30" value="Sim" style="edgeLabel;html=1;align=center;verticalAlign=middle;resizable=0;points=[];" vertex="1" connectable="0" parent="Gb0Qs_LwxQo7n8I7Lbfp-29">
          <mxGeometry x="-0.6983" y="-1" relative="1" as="geometry">
            <mxPoint as="offset" />
          </mxGeometry>
        </mxCell>
        <mxCell id="Gb0Qs_LwxQo7n8I7Lbfp-34" style="edgeStyle=orthogonalEdgeStyle;rounded=0;orthogonalLoop=1;jettySize=auto;html=1;exitX=1;exitY=0.5;exitDx=0;exitDy=0;entryX=0;entryY=0.5;entryDx=0;entryDy=0;" edge="1" parent="1" source="Gb0Qs_LwxQo7n8I7Lbfp-31" target="Gb0Qs_LwxQo7n8I7Lbfp-33">
          <mxGeometry relative="1" as="geometry" />
        </mxCell>
        <mxCell id="Gb0Qs_LwxQo7n8I7Lbfp-31" value="Inserir os dados no banco de dados" style="rounded=1;whiteSpace=wrap;html=1;fillColor=#dae8fc;strokeColor=#6c8ebf;" vertex="1" parent="1">
          <mxGeometry x="1430" y="170" width="120" height="60" as="geometry" />
        </mxCell>
        <mxCell id="Gb0Qs_LwxQo7n8I7Lbfp-37" style="edgeStyle=orthogonalEdgeStyle;rounded=0;orthogonalLoop=1;jettySize=auto;html=1;exitX=1;exitY=0.5;exitDx=0;exitDy=0;entryX=0;entryY=0.5;entryDx=0;entryDy=0;" edge="1" parent="1" source="Gb0Qs_LwxQo7n8I7Lbfp-33" target="Gb0Qs_LwxQo7n8I7Lbfp-36">
          <mxGeometry relative="1" as="geometry" />
        </mxCell>
        <mxCell id="Gb0Qs_LwxQo7n8I7Lbfp-33" value="Realizar o commit da transação" style="rounded=1;whiteSpace=wrap;html=1;fillColor=#dae8fc;strokeColor=#6c8ebf;" vertex="1" parent="1">
          <mxGeometry x="1610" y="170" width="120" height="60" as="geometry" />
        </mxCell>
        <mxCell id="Gb0Qs_LwxQo7n8I7Lbfp-39" style="edgeStyle=orthogonalEdgeStyle;rounded=0;orthogonalLoop=1;jettySize=auto;html=1;exitX=1;exitY=0.5;exitDx=0;exitDy=0;entryX=0;entryY=0.5;entryDx=0;entryDy=0;" edge="1" parent="1" source="Gb0Qs_LwxQo7n8I7Lbfp-36" target="Gb0Qs_LwxQo7n8I7Lbfp-38">
          <mxGeometry relative="1" as="geometry" />
        </mxCell>
        <mxCell id="Gb0Qs_LwxQo7n8I7Lbfp-36" value="Excluir arquivos temporários" style="rounded=1;whiteSpace=wrap;html=1;fillColor=#dae8fc;strokeColor=#6c8ebf;" vertex="1" parent="1">
          <mxGeometry x="1810" y="170" width="120" height="60" as="geometry" />
        </mxCell>
        <mxCell id="Gb0Qs_LwxQo7n8I7Lbfp-41" style="edgeStyle=orthogonalEdgeStyle;rounded=0;orthogonalLoop=1;jettySize=auto;html=1;exitX=1;exitY=0.5;exitDx=0;exitDy=0;entryX=0;entryY=0.5;entryDx=0;entryDy=0;" edge="1" parent="1" source="Gb0Qs_LwxQo7n8I7Lbfp-38" target="Gb0Qs_LwxQo7n8I7Lbfp-40">
          <mxGeometry relative="1" as="geometry" />
        </mxCell>
        <mxCell id="Gb0Qs_LwxQo7n8I7Lbfp-38" value="Encerrar conexão com o banco de dados" style="rounded=1;whiteSpace=wrap;html=1;fillColor=#dae8fc;strokeColor=#6c8ebf;" vertex="1" parent="1">
          <mxGeometry x="1980" y="170" width="120" height="60" as="geometry" />
        </mxCell>
        <mxCell id="Gb0Qs_LwxQo7n8I7Lbfp-40" value="" style="ellipse;html=1;shape=endState;fillColor=#000000;strokeColor=#ff0000;" vertex="1" parent="1">
          <mxGeometry x="2150" y="185" width="30" height="30" as="geometry" />
        </mxCell>
      </root>
    </mxGraphModel>
  </diagram>
  <diagram id="K7wT8CT6U4dEydGEsjB6" name="Fluxo_Geral_das_APIs_de_Dados">
    <mxGraphModel dx="1235" dy="614" grid="1" gridSize="10" guides="1" tooltips="1" connect="1" arrows="1" fold="1" page="1" pageScale="1" pageWidth="827" pageHeight="1169" math="0" shadow="0">
      <root>
        <mxCell id="0" />
        <mxCell id="1" parent="0" />
        <mxCell id="ZUI_0Xk-bQcKWnFb4Q-q-1" value="Grupo de APIs" style="shape=umlFrame;whiteSpace=wrap;html=1;pointerEvents=0;width=110;height=30;" vertex="1" parent="1">
          <mxGeometry x="20" y="20" width="1070" height="890" as="geometry" />
        </mxCell>
        <mxCell id="ZUI_0Xk-bQcKWnFb4Q-q-2" value="Consulta unitária (baseada em identificador único)" style="shape=umlFrame;whiteSpace=wrap;html=1;pointerEvents=0;width=310;height=30;" vertex="1" parent="1">
          <mxGeometry x="40" y="70" width="1030" height="250" as="geometry" />
        </mxCell>
        <mxCell id="iLFw18hOmyH75ZS5Xi2Z-3" style="edgeStyle=orthogonalEdgeStyle;rounded=0;orthogonalLoop=1;jettySize=auto;html=1;exitX=1;exitY=0.5;exitDx=0;exitDy=0;entryX=0;entryY=0.5;entryDx=0;entryDy=0;" edge="1" parent="1" source="iLFw18hOmyH75ZS5Xi2Z-1" target="iLFw18hOmyH75ZS5Xi2Z-2">
          <mxGeometry relative="1" as="geometry" />
        </mxCell>
        <mxCell id="iLFw18hOmyH75ZS5Xi2Z-1" value="" style="ellipse;whiteSpace=wrap;html=1;aspect=fixed;fillColor=#dae8fc;strokeColor=#6c8ebf;" vertex="1" parent="1">
          <mxGeometry x="70" y="170" width="40" height="40" as="geometry" />
        </mxCell>
        <mxCell id="QK-8cHL_mVCq9pUtrhsh-3" style="edgeStyle=orthogonalEdgeStyle;rounded=0;orthogonalLoop=1;jettySize=auto;html=1;exitX=1;exitY=0.5;exitDx=0;exitDy=0;entryX=0;entryY=0.5;entryDx=0;entryDy=0;" edge="1" parent="1" source="iLFw18hOmyH75ZS5Xi2Z-2" target="QK-8cHL_mVCq9pUtrhsh-1">
          <mxGeometry relative="1" as="geometry" />
        </mxCell>
        <mxCell id="iLFw18hOmyH75ZS5Xi2Z-2" value="Consultar no banco de dados o registro referente ao id recebido" style="rounded=1;whiteSpace=wrap;html=1;fillColor=#dae8fc;strokeColor=#6c8ebf;" vertex="1" parent="1">
          <mxGeometry x="150" y="160" width="150" height="60" as="geometry" />
        </mxCell>
        <mxCell id="QK-8cHL_mVCq9pUtrhsh-5" style="edgeStyle=orthogonalEdgeStyle;rounded=0;orthogonalLoop=1;jettySize=auto;html=1;exitX=1;exitY=0.5;exitDx=0;exitDy=0;entryX=0;entryY=0.5;entryDx=0;entryDy=0;" edge="1" parent="1" source="QK-8cHL_mVCq9pUtrhsh-1" target="QK-8cHL_mVCq9pUtrhsh-4">
          <mxGeometry relative="1" as="geometry" />
        </mxCell>
        <mxCell id="QK-8cHL_mVCq9pUtrhsh-6" value="Sim" style="edgeLabel;html=1;align=center;verticalAlign=middle;resizable=0;points=[];" vertex="1" connectable="0" parent="QK-8cHL_mVCq9pUtrhsh-5">
          <mxGeometry x="-0.4606" y="-1" relative="1" as="geometry">
            <mxPoint as="offset" />
          </mxGeometry>
        </mxCell>
        <mxCell id="QK-8cHL_mVCq9pUtrhsh-8" style="edgeStyle=orthogonalEdgeStyle;rounded=0;orthogonalLoop=1;jettySize=auto;html=1;exitX=0.5;exitY=1;exitDx=0;exitDy=0;entryX=0;entryY=0.5;entryDx=0;entryDy=0;" edge="1" parent="1" source="QK-8cHL_mVCq9pUtrhsh-1" target="QK-8cHL_mVCq9pUtrhsh-7">
          <mxGeometry relative="1" as="geometry" />
        </mxCell>
        <mxCell id="QK-8cHL_mVCq9pUtrhsh-9" value="Não" style="edgeLabel;html=1;align=center;verticalAlign=middle;resizable=0;points=[];" vertex="1" connectable="0" parent="QK-8cHL_mVCq9pUtrhsh-8">
          <mxGeometry x="-0.4877" y="-1" relative="1" as="geometry">
            <mxPoint as="offset" />
          </mxGeometry>
        </mxCell>
        <mxCell id="QK-8cHL_mVCq9pUtrhsh-1" value="" style="rhombus;whiteSpace=wrap;html=1;fillColor=#fff2cc;strokeColor=#d6b656;" vertex="1" parent="1">
          <mxGeometry x="364" y="165" width="50" height="50" as="geometry" />
        </mxCell>
        <mxCell id="QK-8cHL_mVCq9pUtrhsh-2" value="Existe dados referentes ao id consultado" style="text;html=1;align=center;verticalAlign=middle;whiteSpace=wrap;rounded=0;" vertex="1" parent="1">
          <mxGeometry x="329" y="120" width="120" height="30" as="geometry" />
        </mxCell>
        <mxCell id="QK-8cHL_mVCq9pUtrhsh-11" style="edgeStyle=orthogonalEdgeStyle;rounded=0;orthogonalLoop=1;jettySize=auto;html=1;exitX=1;exitY=0.5;exitDx=0;exitDy=0;" edge="1" parent="1" source="QK-8cHL_mVCq9pUtrhsh-4" target="QK-8cHL_mVCq9pUtrhsh-10">
          <mxGeometry relative="1" as="geometry" />
        </mxCell>
        <mxCell id="QK-8cHL_mVCq9pUtrhsh-4" value="Responder à requisição com os dados resultantes da consulta" style="rounded=1;whiteSpace=wrap;html=1;fillColor=#dae8fc;strokeColor=#6c8ebf;" vertex="1" parent="1">
          <mxGeometry x="480" y="160" width="170" height="60" as="geometry" />
        </mxCell>
        <mxCell id="QK-8cHL_mVCq9pUtrhsh-12" style="edgeStyle=orthogonalEdgeStyle;rounded=0;orthogonalLoop=1;jettySize=auto;html=1;exitX=1;exitY=0.5;exitDx=0;exitDy=0;entryX=0.5;entryY=1;entryDx=0;entryDy=0;" edge="1" parent="1" source="QK-8cHL_mVCq9pUtrhsh-7" target="QK-8cHL_mVCq9pUtrhsh-10">
          <mxGeometry relative="1" as="geometry" />
        </mxCell>
        <mxCell id="QK-8cHL_mVCq9pUtrhsh-7" value="Responder à requisição com erro HTTP 404" style="rounded=1;whiteSpace=wrap;html=1;fillColor=#dae8fc;strokeColor=#6c8ebf;" vertex="1" parent="1">
          <mxGeometry x="505" y="240" width="120" height="60" as="geometry" />
        </mxCell>
        <mxCell id="QK-8cHL_mVCq9pUtrhsh-10" value="" style="ellipse;html=1;shape=endState;fillColor=#000000;strokeColor=#ff0000;" vertex="1" parent="1">
          <mxGeometry x="720" y="175" width="30" height="30" as="geometry" />
        </mxCell>
        <mxCell id="QK-8cHL_mVCq9pUtrhsh-13" value="Consulta de colução de dados não filtrada" style="shape=umlFrame;whiteSpace=wrap;html=1;pointerEvents=0;width=320;height=30;" vertex="1" parent="1">
          <mxGeometry x="40" y="340" width="1030" height="200" as="geometry" />
        </mxCell>
        <mxCell id="QK-8cHL_mVCq9pUtrhsh-16" style="edgeStyle=orthogonalEdgeStyle;rounded=0;orthogonalLoop=1;jettySize=auto;html=1;exitX=1;exitY=0.5;exitDx=0;exitDy=0;entryX=0;entryY=0.5;entryDx=0;entryDy=0;" edge="1" parent="1" source="QK-8cHL_mVCq9pUtrhsh-14" target="QK-8cHL_mVCq9pUtrhsh-15">
          <mxGeometry relative="1" as="geometry" />
        </mxCell>
        <mxCell id="QK-8cHL_mVCq9pUtrhsh-14" value="" style="ellipse;whiteSpace=wrap;html=1;aspect=fixed;fillColor=#dae8fc;strokeColor=#6c8ebf;" vertex="1" parent="1">
          <mxGeometry x="70" y="425" width="40" height="40" as="geometry" />
        </mxCell>
        <mxCell id="QK-8cHL_mVCq9pUtrhsh-18" style="edgeStyle=orthogonalEdgeStyle;rounded=0;orthogonalLoop=1;jettySize=auto;html=1;exitX=1;exitY=0.5;exitDx=0;exitDy=0;entryX=0;entryY=0.5;entryDx=0;entryDy=0;" edge="1" parent="1" source="QK-8cHL_mVCq9pUtrhsh-15" target="QK-8cHL_mVCq9pUtrhsh-17">
          <mxGeometry relative="1" as="geometry" />
        </mxCell>
        <mxCell id="QK-8cHL_mVCq9pUtrhsh-15" value="Consultar todos os registros de uma determinada tabela do banco de dados" style="rounded=1;whiteSpace=wrap;html=1;fillColor=#dae8fc;strokeColor=#6c8ebf;" vertex="1" parent="1">
          <mxGeometry x="150" y="415" width="150" height="60" as="geometry" />
        </mxCell>
        <mxCell id="QK-8cHL_mVCq9pUtrhsh-20" style="edgeStyle=orthogonalEdgeStyle;rounded=0;orthogonalLoop=1;jettySize=auto;html=1;exitX=1;exitY=0.5;exitDx=0;exitDy=0;entryX=0;entryY=0.5;entryDx=0;entryDy=0;" edge="1" parent="1" source="QK-8cHL_mVCq9pUtrhsh-17" target="QK-8cHL_mVCq9pUtrhsh-19">
          <mxGeometry relative="1" as="geometry" />
        </mxCell>
        <mxCell id="QK-8cHL_mVCq9pUtrhsh-17" value="Responder à requisição com os dados resultantes da consulta" style="rounded=1;whiteSpace=wrap;html=1;fillColor=#dae8fc;strokeColor=#6c8ebf;" vertex="1" parent="1">
          <mxGeometry x="340" y="415" width="170" height="60" as="geometry" />
        </mxCell>
        <mxCell id="QK-8cHL_mVCq9pUtrhsh-19" value="" style="ellipse;html=1;shape=endState;fillColor=#000000;strokeColor=#ff0000;" vertex="1" parent="1">
          <mxGeometry x="550" y="430" width="30" height="30" as="geometry" />
        </mxCell>
        <mxCell id="QK-8cHL_mVCq9pUtrhsh-21" value="Consulta de dados hierárquicos" style="shape=umlFrame;whiteSpace=wrap;html=1;pointerEvents=0;width=210;height=30;" vertex="1" parent="1">
          <mxGeometry x="40" y="560" width="1030" height="330" as="geometry" />
        </mxCell>
        <mxCell id="QK-8cHL_mVCq9pUtrhsh-26" style="edgeStyle=orthogonalEdgeStyle;rounded=0;orthogonalLoop=1;jettySize=auto;html=1;exitX=1;exitY=0.5;exitDx=0;exitDy=0;entryX=0;entryY=0.5;entryDx=0;entryDy=0;" edge="1" parent="1" source="QK-8cHL_mVCq9pUtrhsh-22" target="QK-8cHL_mVCq9pUtrhsh-23">
          <mxGeometry relative="1" as="geometry" />
        </mxCell>
        <mxCell id="QK-8cHL_mVCq9pUtrhsh-22" value="" style="ellipse;whiteSpace=wrap;html=1;aspect=fixed;fillColor=#dae8fc;strokeColor=#6c8ebf;" vertex="1" parent="1">
          <mxGeometry x="70" y="685" width="40" height="40" as="geometry" />
        </mxCell>
        <mxCell id="QK-8cHL_mVCq9pUtrhsh-27" style="edgeStyle=orthogonalEdgeStyle;rounded=0;orthogonalLoop=1;jettySize=auto;html=1;exitX=1;exitY=0.5;exitDx=0;exitDy=0;entryX=0;entryY=0.5;entryDx=0;entryDy=0;" edge="1" parent="1" source="QK-8cHL_mVCq9pUtrhsh-23" target="QK-8cHL_mVCq9pUtrhsh-24">
          <mxGeometry relative="1" as="geometry" />
        </mxCell>
        <mxCell id="QK-8cHL_mVCq9pUtrhsh-23" value="Realizar consulta, no banco de dados, do elemento PARENT da hierarquia usando identificador único recebido na requisição" style="rounded=1;whiteSpace=wrap;html=1;fillColor=#dae8fc;strokeColor=#6c8ebf;" vertex="1" parent="1">
          <mxGeometry x="165" y="675" width="235" height="60" as="geometry" />
        </mxCell>
        <mxCell id="QK-8cHL_mVCq9pUtrhsh-29" style="edgeStyle=orthogonalEdgeStyle;rounded=0;orthogonalLoop=1;jettySize=auto;html=1;exitX=0.5;exitY=1;exitDx=0;exitDy=0;entryX=0;entryY=0.5;entryDx=0;entryDy=0;" edge="1" parent="1" source="QK-8cHL_mVCq9pUtrhsh-24" target="QK-8cHL_mVCq9pUtrhsh-28">
          <mxGeometry relative="1" as="geometry" />
        </mxCell>
        <mxCell id="QK-8cHL_mVCq9pUtrhsh-38" value="Não" style="edgeLabel;html=1;align=center;verticalAlign=middle;resizable=0;points=[];" vertex="1" connectable="0" parent="QK-8cHL_mVCq9pUtrhsh-29">
          <mxGeometry x="-0.3692" y="-3" relative="1" as="geometry">
            <mxPoint x="3" y="6" as="offset" />
          </mxGeometry>
        </mxCell>
        <mxCell id="QK-8cHL_mVCq9pUtrhsh-31" style="edgeStyle=orthogonalEdgeStyle;rounded=0;orthogonalLoop=1;jettySize=auto;html=1;exitX=1;exitY=0.5;exitDx=0;exitDy=0;entryX=0;entryY=0.5;entryDx=0;entryDy=0;" edge="1" parent="1" source="QK-8cHL_mVCq9pUtrhsh-24" target="QK-8cHL_mVCq9pUtrhsh-30">
          <mxGeometry relative="1" as="geometry" />
        </mxCell>
        <mxCell id="QK-8cHL_mVCq9pUtrhsh-37" value="Sim" style="edgeLabel;html=1;align=center;verticalAlign=middle;resizable=0;points=[];" vertex="1" connectable="0" parent="QK-8cHL_mVCq9pUtrhsh-31">
          <mxGeometry x="0.0071" y="1" relative="1" as="geometry">
            <mxPoint as="offset" />
          </mxGeometry>
        </mxCell>
        <mxCell id="QK-8cHL_mVCq9pUtrhsh-24" value="" style="rhombus;whiteSpace=wrap;html=1;fillColor=#fff2cc;strokeColor=#d6b656;" vertex="1" parent="1">
          <mxGeometry x="455" y="680" width="50" height="50" as="geometry" />
        </mxCell>
        <mxCell id="QK-8cHL_mVCq9pUtrhsh-25" value="Existe dados referentes ao id consultado" style="text;html=1;align=center;verticalAlign=middle;whiteSpace=wrap;rounded=0;" vertex="1" parent="1">
          <mxGeometry x="420" y="640" width="120" height="30" as="geometry" />
        </mxCell>
        <mxCell id="QK-8cHL_mVCq9pUtrhsh-36" style="edgeStyle=orthogonalEdgeStyle;rounded=0;orthogonalLoop=1;jettySize=auto;html=1;exitX=1;exitY=0.5;exitDx=0;exitDy=0;entryX=0.5;entryY=1;entryDx=0;entryDy=0;" edge="1" parent="1" source="QK-8cHL_mVCq9pUtrhsh-28" target="QK-8cHL_mVCq9pUtrhsh-34">
          <mxGeometry relative="1" as="geometry" />
        </mxCell>
        <mxCell id="QK-8cHL_mVCq9pUtrhsh-28" value="Responder à requisição com erro HTTP 404" style="rounded=1;whiteSpace=wrap;html=1;fillColor=#dae8fc;strokeColor=#6c8ebf;" vertex="1" parent="1">
          <mxGeometry x="580" y="800" width="120" height="60" as="geometry" />
        </mxCell>
        <mxCell id="QK-8cHL_mVCq9pUtrhsh-33" style="edgeStyle=orthogonalEdgeStyle;rounded=0;orthogonalLoop=1;jettySize=auto;html=1;exitX=1;exitY=0.5;exitDx=0;exitDy=0;entryX=0;entryY=0.5;entryDx=0;entryDy=0;" edge="1" parent="1" source="QK-8cHL_mVCq9pUtrhsh-30" target="QK-8cHL_mVCq9pUtrhsh-32">
          <mxGeometry relative="1" as="geometry" />
        </mxCell>
        <mxCell id="QK-8cHL_mVCq9pUtrhsh-30" value="Consultar todos os registros solicitados, com base no elemento PARENT da hierarquia obtido em passo anterior" style="rounded=1;whiteSpace=wrap;html=1;fillColor=#dae8fc;strokeColor=#6c8ebf;" vertex="1" parent="1">
          <mxGeometry x="555" y="657.5" width="170" height="95" as="geometry" />
        </mxCell>
        <mxCell id="QK-8cHL_mVCq9pUtrhsh-35" style="edgeStyle=orthogonalEdgeStyle;rounded=0;orthogonalLoop=1;jettySize=auto;html=1;exitX=1;exitY=0.5;exitDx=0;exitDy=0;entryX=0;entryY=0.5;entryDx=0;entryDy=0;" edge="1" parent="1" source="QK-8cHL_mVCq9pUtrhsh-32" target="QK-8cHL_mVCq9pUtrhsh-34">
          <mxGeometry relative="1" as="geometry" />
        </mxCell>
        <mxCell id="QK-8cHL_mVCq9pUtrhsh-32" value="Responder à requisição com os dados resultantes da consulta" style="rounded=1;whiteSpace=wrap;html=1;fillColor=#dae8fc;strokeColor=#6c8ebf;" vertex="1" parent="1">
          <mxGeometry x="780" y="675" width="170" height="60" as="geometry" />
        </mxCell>
        <mxCell id="QK-8cHL_mVCq9pUtrhsh-34" value="" style="ellipse;html=1;shape=endState;fillColor=#000000;strokeColor=#ff0000;" vertex="1" parent="1">
          <mxGeometry x="1010" y="690" width="30" height="30" as="geometry" />
        </mxCell>
      </root>
    </mxGraphModel>
  </diagram>
  <diagram id="gIZz31MnS-ogyIVTENoI" name="Diagrama_de_implantação">
    <mxGraphModel dx="1050" dy="522" grid="1" gridSize="10" guides="1" tooltips="1" connect="1" arrows="1" fold="1" page="1" pageScale="1" pageWidth="827" pageHeight="1169" math="0" shadow="0">
      <root>
        <mxCell id="0" />
        <mxCell id="1" parent="0" />
        <mxCell id="NhqVWrQaK6Yb3QWuALmI-3" value="&amp;nbsp; AWS" style="rounded=0;whiteSpace=wrap;html=1;fillColor=none;dashed=1;strokeColor=#ffa200;fontColor=#ed7100;align=left;verticalAlign=top;" vertex="1" parent="1">
          <mxGeometry x="84" y="130" width="660" height="330" as="geometry" />
        </mxCell>
        <mxCell id="NhqVWrQaK6Yb3QWuALmI-8" style="edgeStyle=orthogonalEdgeStyle;rounded=0;orthogonalLoop=1;jettySize=auto;html=1;exitX=1;exitY=0.5;exitDx=0;exitDy=0;exitPerimeter=0;" edge="1" parent="1" source="NhqVWrQaK6Yb3QWuALmI-2" target="NhqVWrQaK6Yb3QWuALmI-7">
          <mxGeometry relative="1" as="geometry" />
        </mxCell>
        <mxCell id="NhqVWrQaK6Yb3QWuALmI-2" value="Container Repository" style="sketch=0;points=[[0,0,0],[0.25,0,0],[0.5,0,0],[0.75,0,0],[1,0,0],[0,1,0],[0.25,1,0],[0.5,1,0],[0.75,1,0],[1,1,0],[0,0.25,0],[0,0.5,0],[0,0.75,0],[1,0.25,0],[1,0.5,0],[1,0.75,0]];outlineConnect=0;fontColor=#232F3E;fillColor=#ED7100;strokeColor=#ffffff;dashed=0;verticalLabelPosition=top;verticalAlign=bottom;align=center;html=1;fontSize=12;fontStyle=0;aspect=fixed;shape=mxgraph.aws4.resourceIcon;resIcon=mxgraph.aws4.ecr;labelPosition=center;" vertex="1" parent="1">
          <mxGeometry x="114" y="260.25" width="78" height="78" as="geometry" />
        </mxCell>
        <mxCell id="NhqVWrQaK6Yb3QWuALmI-4" value="&lt;div&gt;&lt;span style=&quot;background-color: initial;&quot;&gt;&amp;nbsp;Network Access Control List&lt;/span&gt;&lt;br&gt;&lt;/div&gt;" style="rounded=0;whiteSpace=wrap;html=1;fontColor=#ff00dd;fillColor=none;dashed=1;align=left;verticalAlign=top;strokeColor=#ff00dd;" vertex="1" parent="1">
          <mxGeometry x="214" y="150" width="510" height="290" as="geometry" />
        </mxCell>
        <mxCell id="NhqVWrQaK6Yb3QWuALmI-5" value="&amp;nbsp; Application Security Group" style="rounded=0;whiteSpace=wrap;html=1;align=left;verticalAlign=top;strokeColor=#0000ff;fontColor=#0000ff;fillColor=none;dashed=1;" vertex="1" parent="1">
          <mxGeometry x="234" y="190" width="240" height="230" as="geometry" />
        </mxCell>
        <mxCell id="NhqVWrQaK6Yb3QWuALmI-6" value="&amp;nbsp; Assets Bucket Security Group" style="rounded=0;whiteSpace=wrap;html=1;align=left;verticalAlign=top;strokeColor=#0000ff;fontColor=#0000ff;fillColor=none;dashed=1;" vertex="1" parent="1">
          <mxGeometry x="494" y="190" width="210" height="230" as="geometry" />
        </mxCell>
        <mxCell id="NhqVWrQaK6Yb3QWuALmI-7" value="Application EC2 Instance" style="sketch=0;points=[[0,0,0],[0.25,0,0],[0.5,0,0],[0.75,0,0],[1,0,0],[0,1,0],[0.25,1,0],[0.5,1,0],[0.75,1,0],[1,1,0],[0,0.25,0],[0,0.5,0],[0,0.75,0],[1,0.25,0],[1,0.5,0],[1,0.75,0]];outlineConnect=0;fontColor=#232F3E;fillColor=#ED7100;strokeColor=#ffffff;dashed=0;verticalLabelPosition=bottom;verticalAlign=top;align=center;html=1;fontSize=12;fontStyle=0;aspect=fixed;shape=mxgraph.aws4.resourceIcon;resIcon=mxgraph.aws4.compute;" vertex="1" parent="1">
          <mxGeometry x="354" y="260.25" width="78" height="78" as="geometry" />
        </mxCell>
        <mxCell id="NhqVWrQaK6Yb3QWuALmI-9" value="Bucket de armazenamento&lt;br&gt;de assets de machine learning" style="outlineConnect=0;dashed=0;verticalLabelPosition=top;verticalAlign=bottom;align=center;html=1;shape=mxgraph.aws3.bucket;fillColor=#E05243;gradientColor=none;labelPosition=center;" vertex="1" parent="1">
          <mxGeometry x="564" y="268.5" width="60" height="61.5" as="geometry" />
        </mxCell>
        <mxCell id="NhqVWrQaK6Yb3QWuALmI-10" style="edgeStyle=orthogonalEdgeStyle;rounded=0;orthogonalLoop=1;jettySize=auto;html=1;exitX=0.06;exitY=0.5;exitDx=0;exitDy=0;exitPerimeter=0;entryX=1;entryY=0.5;entryDx=0;entryDy=0;entryPerimeter=0;" edge="1" parent="1" source="NhqVWrQaK6Yb3QWuALmI-9" target="NhqVWrQaK6Yb3QWuALmI-7">
          <mxGeometry relative="1" as="geometry" />
        </mxCell>
        <mxCell id="NhqVWrQaK6Yb3QWuALmI-11" value="" style="outlineConnect=0;dashed=0;verticalLabelPosition=bottom;verticalAlign=top;align=center;html=1;shape=mxgraph.aws3.internet_3;fillColor=#D2D3D3;gradientColor=none;" vertex="1" parent="1">
          <mxGeometry x="353.25" y="40" width="79.5" height="54" as="geometry" />
        </mxCell>
        <mxCell id="NhqVWrQaK6Yb3QWuALmI-12" style="edgeStyle=orthogonalEdgeStyle;rounded=0;orthogonalLoop=1;jettySize=auto;html=1;exitX=0.5;exitY=0;exitDx=0;exitDy=0;exitPerimeter=0;entryX=0.5;entryY=1;entryDx=0;entryDy=0;entryPerimeter=0;" edge="1" parent="1" source="NhqVWrQaK6Yb3QWuALmI-7" target="NhqVWrQaK6Yb3QWuALmI-11">
          <mxGeometry relative="1" as="geometry" />
        </mxCell>
        <mxCell id="NhqVWrQaK6Yb3QWuALmI-13" value="Código da aplicação" style="verticalLabelPosition=bottom;html=1;verticalAlign=top;align=center;strokeColor=none;fillColor=#00BEF2;shape=mxgraph.azure.github_code;pointerEvents=1;" vertex="1" parent="1">
          <mxGeometry x="382" y="610" width="50" height="50" as="geometry" />
        </mxCell>
        <mxCell id="NhqVWrQaK6Yb3QWuALmI-14" value="Máquina de build/treinamento" style="image;points=[];aspect=fixed;html=1;align=center;shadow=0;dashed=0;image=img/lib/allied_telesis/computer_and_terminals/Personal_Computer.svg;labelPosition=center;verticalLabelPosition=top;verticalAlign=bottom;" vertex="1" parent="1">
          <mxGeometry x="386.4" y="510" width="45.6" height="61.800000000000004" as="geometry" />
        </mxCell>
        <mxCell id="NhqVWrQaK6Yb3QWuALmI-15" style="edgeStyle=orthogonalEdgeStyle;rounded=0;orthogonalLoop=1;jettySize=auto;html=1;exitX=0.5;exitY=0;exitDx=0;exitDy=0;exitPerimeter=0;entryX=0.465;entryY=1.01;entryDx=0;entryDy=0;entryPerimeter=0;" edge="1" parent="1" source="NhqVWrQaK6Yb3QWuALmI-13" target="NhqVWrQaK6Yb3QWuALmI-14">
          <mxGeometry relative="1" as="geometry" />
        </mxCell>
        <mxCell id="NhqVWrQaK6Yb3QWuALmI-16" value="" style="endArrow=classic;html=1;rounded=0;exitX=-0.044;exitY=0.608;exitDx=0;exitDy=0;exitPerimeter=0;entryX=0.5;entryY=1;entryDx=0;entryDy=0;entryPerimeter=0;" edge="1" parent="1" source="NhqVWrQaK6Yb3QWuALmI-14" target="NhqVWrQaK6Yb3QWuALmI-2">
          <mxGeometry width="50" height="50" relative="1" as="geometry">
            <mxPoint x="390" y="550" as="sourcePoint" />
            <mxPoint x="440" y="500" as="targetPoint" />
            <Array as="points">
              <mxPoint x="153" y="550" />
            </Array>
          </mxGeometry>
        </mxCell>
        <mxCell id="NhqVWrQaK6Yb3QWuALmI-17" value="" style="endArrow=classic;html=1;rounded=0;entryX=0.5;entryY=1;entryDx=0;entryDy=0;entryPerimeter=0;exitX=1.061;exitY=0.647;exitDx=0;exitDy=0;exitPerimeter=0;" edge="1" parent="1" source="NhqVWrQaK6Yb3QWuALmI-14" target="NhqVWrQaK6Yb3QWuALmI-9">
          <mxGeometry width="50" height="50" relative="1" as="geometry">
            <mxPoint x="390" y="450" as="sourcePoint" />
            <mxPoint x="440" y="400" as="targetPoint" />
            <Array as="points">
              <mxPoint x="594" y="550" />
            </Array>
          </mxGeometry>
        </mxCell>
      </root>
    </mxGraphModel>
  </diagram>
</mxfile>
